<?xml version="1.0" encoding="UTF-8" standalone="no"?>
<!-- Created with Inkscape (http://www.inkscape.org/) -->

<svg
   width="1920"
   height="1080"
   viewBox="0 0 508 285.75"
   version="1.1"
   id="svg5"
   inkscape:version="1.2-dev (764fb70, 2021-08-14)"
   sodipodi:docname="IntroChatAllOverTheWorld.svg"
   xmlns:inkscape="http://www.inkscape.org/namespaces/inkscape"
   xmlns:sodipodi="http://sodipodi.sourceforge.net/DTD/sodipodi-0.dtd"
   xmlns="http://www.w3.org/2000/svg"
   xmlns:svg="http://www.w3.org/2000/svg">
  <sodipodi:namedview
     id="namedview7"
     pagecolor="#ffffff"
     bordercolor="#eeeeee"
     borderopacity="1"
     inkscape:pageshadow="0"
     inkscape:pageopacity="0"
     inkscape:pagecheckerboard="0"
     inkscape:document-units="px"
     showgrid="false"
     units="px"
     showborder="false"
     inkscape:zoom="0.3974202"
     inkscape:cx="1381.7724"
     inkscape:cy="1466.4768"
     inkscape:window-width="1600"
     inkscape:window-height="877"
     inkscape:window-x="0"
     inkscape:window-y="23"
     inkscape:window-maximized="1"
     inkscape:current-layer="layer1" />
  <defs
     id="defs2" />
  <g
     inkscape:label="Layer 1"
     inkscape:groupmode="layer"
     id="layer1">
    <path
       style="fill:#000000;stroke-width:1"
       d="m 552.23009,415.06645 c -1.58973,-0.48921 -2.96296,-2.0066 -3.8121,-4.21225 -0.31593,-0.82063 -0.33701,-1.57097 -0.0493,-1.7529 0.14389,-0.091 0.17632,-0.43413 0.0721,-0.76257 -0.14003,-0.4412 -0.2456,-0.50643 -0.40422,-0.24977 -0.14203,0.22981 -0.27438,-0.005 -0.39105,-0.69265 -0.097,-0.57201 -0.2534,-1.27815 -0.34756,-1.56919 -0.0942,-0.29104 -0.17734,-1.42214 -0.18486,-2.51354 -0.0134,-1.94648 -0.28253,-5.90797 -0.55298,-8.14008 -0.12022,-0.99214 -0.30953,-1.25906 -1.56552,-2.20735 -1.39537,-1.05351 -1.69731,-1.49934 -4.57179,-6.75033 -0.19013,-0.34731 -0.2544,-0.77917 -0.14284,-0.95968 0.11156,-0.18051 0.21362,-0.75802 0.22681,-1.28334 0.0163,-0.65066 0.2938,-1.29583 0.87044,-2.0239 0.95137,-1.2012 1.08507,-2.2773 0.43833,-3.52795 -0.40348,-0.78025 -0.91477,-0.83328 -0.91477,-0.0949 0,0.43658 -0.41816,0.51035 -0.66146,0.11668 -0.0899,-0.14552 -0.37387,-0.26458 -0.63095,-0.26458 -0.57347,0 -1.42137,-0.90617 -1.90125,-2.03192 -0.27704,-0.6499 -0.6124,-0.91234 -1.47415,-1.15361 -0.61354,-0.17178 -1.37721,-0.59087 -1.69704,-0.93132 -0.44043,-0.46882 -0.76344,-0.5826 -1.33144,-0.469 -0.54644,0.10929 -1.16549,-0.0822 -2.28151,-0.70567 -2.18825,-1.22252 -2.46007,-1.50925 -2.28076,-2.4058 0.11978,-0.59889 -0.0223,-0.95709 -0.674,-1.69935 -0.45418,-0.51727 -0.82956,-1.14471 -0.83419,-1.39431 -0.005,-0.2496 -0.18322,-0.68493 -0.39687,-0.96741 -0.21366,-0.28247 -0.38846,-0.78146 -0.38846,-1.10886 0,-0.3274 -0.13238,-0.67709 -0.29417,-0.77708 -0.38299,-0.2367 -0.80557,0.4328 -0.59604,0.94433 0.27762,0.67777 1.40791,3.83057 1.41379,3.94361 0.003,0.0589 -0.23254,-0.10835 -0.52358,-0.37174 -0.29105,-0.26339 -0.52917,-0.65942 -0.52917,-0.88007 0,-0.22065 -0.20471,-0.62738 -0.4549,-0.90384 -0.2502,-0.27646 -0.46796,-0.70256 -0.48391,-0.94688 -0.016,-0.24431 -0.0494,-0.95591 -0.0743,-1.58132 -0.0331,-0.83224 -0.22064,-1.29965 -0.6994,-1.74335 -1.42853,-1.32392 -1.18028,-3.84928 0.5978,-6.08117 1.06789,-1.34044 1.45689,-2.5526 0.9861,-3.07281 -0.48714,-0.53828 -0.50982,-0.79757 -0.0699,-0.79869 0.20712,-5.3e-4 0.33555,-0.39607 0.34362,-1.05833 0.009,-0.69739 -0.10412,-1.0575 -0.33073,-1.0575 -0.23046,0 -0.34362,-0.38901 -0.34362,-1.18131 0,-1.69259 -1.43811,-2.24469 -4.23333,-1.6252 -0.70725,0.15674 -0.83227,0.13556 -0.52917,-0.0897 0.30844,-0.22918 0.21999,-0.25386 -0.39687,-0.11074 -0.43656,0.10128 -0.91281,0.34095 -1.05833,0.53259 -0.24955,0.32863 -1.32184,0.75032 -5.01401,1.97181 -2.62951,0.86994 -2.56755,0.41971 0.0738,-0.53619 l 2.46812,-0.89321 -0.74833,-0.64373 -0.74832,-0.64374 0.7108,-0.61213 c 0.42977,-0.3701 1.24051,-0.68498 2.05052,-0.79638 1.37592,-0.18924 1.86081,-0.66377 0.67826,-0.66377 -1.28532,0 -0.75451,-0.76318 0.66146,-0.95102 0.99969,-0.13261 1.32291,-0.28535 1.32291,-0.62512 0,-0.31642 0.37238,-0.54171 1.25677,-0.76037 0.69123,-0.1709 1.88255,-0.48245 2.64738,-0.69234 1.22159,-0.33524 1.62357,-0.33277 3.30729,0.0203 1.73912,0.36468 3.65204,0.45155 8.66356,0.39341 2.05257,-0.0238 3.59713,0.29307 3.50573,0.71922 -0.0883,0.41156 2.10665,0.41105 2.51828,-5.9e-4 0.23562,-0.23562 0.56514,-0.23226 1.38752,0.0141 1.14161,0.34204 1.97455,0.20703 2.6036,-0.42202 0.21038,-0.21038 0.59718,-0.32637 0.85955,-0.25776 0.26237,0.0686 0.51251,0.0319 0.55587,-0.0815 0.21354,-0.55872 2.66915,-2.11788 3.32226,-2.10944 l 0.72532,0.009 -0.66146,0.37812 c -0.3638,0.20797 -0.86982,0.38235 -1.12448,0.3875 -0.51548,0.0104 -0.69491,1.59688 -0.18061,1.59688 0.16904,0 0.20955,0.22957 0.10092,0.57184 l -0.1815,0.57185 0.87003,-0.50813 c 0.96836,-0.56555 1.31302,-1.16473 0.66998,-1.16473 -0.69935,0 -0.46889,-0.75432 0.36169,-1.18383 0.91606,-0.47371 1.44138,-0.52357 1.18745,-0.11269 -0.13077,0.21159 -0.0315,0.21159 0.36386,0 0.82121,-0.43949 2.83424,-0.36413 3.23701,0.12118 0.18814,0.22669 0.74728,0.58147 1.24255,0.78841 0.67358,0.28144 0.86269,0.49532 0.7505,0.8488 -0.10149,0.31978 0.0364,0.55675 0.42638,0.73295 0.85192,0.38488 0.88127,0.88233 0.0702,1.19068 -0.577,0.21938 -0.77837,0.1863 -1.03945,-0.17075 -0.23653,-0.32347 -0.37649,-0.35759 -0.51926,-0.12657 -0.1075,0.17394 -0.0516,0.48963 0.1243,0.70154 0.47998,0.57834 -0.1479,1.26524 -0.8252,0.90277 -0.40828,-0.21851 -0.46555,-0.1873 -0.32559,0.17745 0.25168,0.65586 -1.23327,0.24102 -1.83469,-0.51254 -0.44957,-0.56331 -0.43909,-0.59917 0.38032,-1.30139 0.87877,-0.75311 0.83457,-1.3471 -0.0587,-0.78922 -0.61094,0.38154 -0.7853,0.40085 -0.7853,0.087 0,-0.12855 0.2501,-0.29913 0.55579,-0.37907 0.85503,-0.2236 0.32612,-0.71033 -0.76985,-0.70845 -0.807,0.001 -1.05483,0.1392 -1.42728,0.79375 -0.41242,0.72477 -0.83255,0.90639 -1.99668,0.86315 -0.49221,-0.0183 -0.40054,0.28721 0.19843,0.66127 0.80065,0.50001 0.6412,0.72889 -0.52916,0.75957 -1.11787,0.0293 -1.26624,-0.1086 -0.72761,-0.67637 0.27129,-0.28595 0.23562,-0.29915 -0.19844,-0.0734 -0.29104,0.15137 -1.42213,0.71559 -2.51354,1.25384 -2.68678,1.32503 -3.92152,3.03111 -2.1937,3.03111 0.21475,0 0.69317,0.23813 1.06317,0.52917 0.37,0.29104 0.96136,0.52917 1.31412,0.52917 0.36716,0 0.57033,0.11499 0.47517,0.26894 -0.32298,0.52261 -0.39478,1.55153 -0.12011,1.72129 0.38697,0.23916 1.04885,-0.36597 1.04885,-0.95892 0,-0.30431 0.39051,-0.69061 1.02571,-1.01467 1.0465,-0.53388 1.49451,-1.16525 1.18369,-1.66816 -0.0955,-0.15446 -0.005,-0.41161 0.2008,-0.57144 0.20591,-0.15982 0.51921,-0.61801 0.69621,-1.01819 0.59752,-1.35088 3.61483,-0.67999 3.09023,0.68711 -0.27084,0.70579 0.62881,0.84119 1.46778,0.2209 l 0.74706,-0.55232 0.15627,0.58283 c 0.086,0.32056 0.1579,0.90607 0.15989,1.30113 0.002,0.44349 0.20487,0.826 0.52966,0.99982 0.68089,0.36441 0.9281,1.37875 0.52129,2.1389 -0.2608,0.48731 -0.24889,0.65225 0.0639,0.88454 0.86457,0.64209 0.73016,1.70891 -0.18517,1.46966 -0.14552,-0.038 -0.65433,-0.14144 -1.1307,-0.22977 l -0.86613,-0.16061 0.81239,-0.98387 0.81239,-0.98387 -0.92996,0.38855 c -0.51147,0.21371 -1.51079,0.38856 -2.22071,0.38856 -1.18033,0 -3.16603,0.67549 -2.86643,0.97509 0.0694,0.0694 0.36662,-0.003 0.66056,-0.1599 0.78981,-0.42269 1.45132,-0.36445 1.25899,0.11085 -0.0883,0.21829 -0.23249,0.57447 -0.32035,0.79152 -0.2205,0.54475 0.63212,0.82645 1.27889,0.42253 0.28594,-0.17857 0.5966,-0.24796 0.69036,-0.1542 0.20464,0.20464 -0.47596,0.62621 -2.03928,1.26315 -0.99012,0.4034 -1.13354,0.41288 -1.00049,0.0661 0.34712,-0.90457 -2.19067,0.17804 -2.59934,1.10887 -0.14175,0.32287 -0.58215,0.65828 -0.97865,0.74537 -0.86052,0.189 -2.86466,2.00358 -2.86466,2.59371 0,0.22901 -0.43243,0.74889 -0.96095,1.15527 -2.70872,2.08277 -2.81227,2.21507 -2.65151,3.38792 0.15736,1.14804 -0.0162,2.24576 -0.35505,2.24576 -0.3175,0 -0.86601,-1.52311 -0.66541,-1.8477 0.21831,-0.35323 -0.35801,-1.11629 -0.68873,-0.9119 -0.12903,0.0797 -0.38336,0.0531 -0.56517,-0.0593 -0.40542,-0.25056 -1.83116,-0.13081 -2.15541,0.18104 -0.13036,0.12538 -0.56663,0.16204 -0.96949,0.0815 -1.90793,-0.38158 -3.79591,2.00323 -3.76925,4.76115 0.0169,1.74484 2.65063,2.43014 3.25277,0.84637 0.24497,-0.6443 1.12223,-1.09169 1.58265,-0.80713 0.1616,0.0999 0.0616,0.68682 -0.26208,1.53844 -0.68163,1.79339 -0.68697,1.77316 0.46857,1.77788 1.50692,0.006 1.65638,0.19235 1.32318,1.64845 -0.35888,1.56828 0.21002,2.44286 1.41663,2.17784 0.40046,-0.088 0.95718,-0.0112 1.25135,0.1725 0.58364,0.36449 1.36665,-0.0378 1.36665,-0.70206 0,-0.18623 0.38695,-0.49133 0.8599,-0.67799 0.47294,-0.18667 0.94812,-0.38648 1.05597,-0.44402 0.10784,-0.0575 0.13443,0.29189 0.0591,0.77653 -0.11124,0.71556 -0.0894,0.77437 0.11612,0.31292 0.33888,-0.76083 0.76829,-0.99414 1.18824,-0.64561 0.19014,0.1578 0.9886,0.31688 1.77435,0.3535 1.46784,0.0684 1.70252,0.19615 3.64686,1.98483 0.5141,0.47294 1.15982,0.85989 1.43493,0.85989 1.03696,0 2.32295,0.8425 2.4793,1.62428 0.0833,0.41633 0.25558,0.75697 0.38291,0.75697 0.12733,0 0.23151,0.1871 0.23151,0.41578 0,0.58364 0.65448,1.17171 1.30401,1.17171 0.30144,0 0.80173,0.25367 1.11176,0.56369 0.37964,0.37965 0.92466,0.57402 1.66925,0.59532 0.78914,0.0226 1.35302,0.23987 1.97015,0.75922 0.47553,0.40019 0.97747,0.72761 1.11543,0.72761 1.05047,0 0.63161,2.13433 -0.8292,4.22521 -0.29102,0.41654 -0.53049,1.4162 -0.63366,2.64521 -0.19145,2.28048 -0.56551,2.98565 -1.94044,3.65806 -2.00662,0.98134 -2.1798,1.16547 -2.1798,2.31757 0,0.70102 -0.17959,1.26984 -0.51435,1.62917 -0.28289,0.30365 -0.68117,0.95118 -0.88506,1.43896 -0.55456,1.3267 -1.10648,1.69702 -1.9538,1.31096 l -0.69171,-0.31517 0.45131,0.68879 c 0.6698,1.02225 0.44996,1.74875 -0.63973,2.11405 -0.50932,0.17075 -0.92604,0.47841 -0.92604,0.68371 0,0.2053 -0.26789,0.41132 -0.59531,0.45782 -0.69344,0.0985 -0.7338,0.24847 -0.22085,0.82066 0.31343,0.34963 0.31906,0.57783 0.0345,1.40014 -0.30421,0.8792 -0.28805,1.02937 0.15377,1.42922 0.29962,0.27115 0.40508,0.56102 0.26827,0.73736 -0.7936,1.02288 0.052,2.88572 1.53092,3.37252 1.54002,0.50692 -0.27275,0.83133 -1.88059,0.33655 z m 108.42378,-4.82662 c -0.0739,-0.11963 0.66318,-0.67778 1.63803,-1.24034 0.97485,-0.56256 2.06339,-1.24409 2.41898,-1.51452 0.3556,-0.27042 0.95091,-0.45641 1.32292,-0.41331 0.52612,0.061 0.67638,-0.0392 0.67638,-0.45079 0,-0.29104 0.20836,-0.73753 0.46303,-0.99219 0.25466,-0.25466 0.46302,-0.82021 0.46302,-1.25677 0,-1.04645 0.35486,-1.01171 0.67566,0.0661 0.14075,0.47295 0.4035,0.83013 0.58388,0.79375 0.63468,-0.128 0.3162,0.35886 -0.79652,1.21764 -0.61847,0.47732 -1.45021,0.93406 -1.84833,1.01498 -0.39811,0.0809 -1.02932,0.43024 -1.40269,0.77627 -0.37337,0.34602 -0.76201,0.6313 -0.86366,0.63395 -0.10164,0.003 -0.70873,0.35984 -1.3491,0.79375 -1.18362,0.80203 -1.73994,0.96246 -1.9816,0.57144 z m -8.88903,-1.96532 c 0.0116,-1.06427 0.30545,-1.42318 1.0729,-1.31054 0.9265,0.13598 0.9702,0.381 0.19651,1.1018 -0.6502,0.60576 -1.27487,0.70848 -1.26941,0.20874 z m 0.062,-2.53202 c -0.5869,-0.0833 -1.24519,-0.89651 -0.95814,-1.18356 0.27813,-0.27814 -0.19567,-1.25795 -0.51554,-1.06612 -0.17603,0.10558 -0.15364,-0.008 0.0515,-0.26074 0.46618,-0.57471 0.091,-0.58149 -0.54073,-0.01 -0.45437,0.41121 -0.48385,0.40352 -0.48385,-0.12619 0,-1.43855 -3.03109,-1.77579 -5.26881,-0.5862 -0.5219,0.27744 -1.30609,0.56455 -1.74265,0.63803 -0.43656,0.0735 -1.11919,0.21383 -1.51694,0.31191 -1.19879,0.2956 -1.63305,-10e-4 -1.12851,-0.77117 0.42047,-0.64172 0.61143,-3.31117 0.27572,-3.85436 -0.0963,-0.15578 -0.0864,-0.42668 0.022,-0.60199 0.10836,-0.17533 0.23554,-0.68134 0.28264,-1.12448 0.10451,-0.98331 0.46207,-1.26332 2.71022,-2.12238 1.28124,-0.48959 1.88296,-0.88543 2.22425,-1.46319 0.25733,-0.43561 0.57609,-0.79203 0.70837,-0.79203 0.13228,0 0.6059,-0.35718 1.0525,-0.79375 0.92897,-0.9081 1.1979,-0.97015 1.54173,-0.35575 0.21965,0.39248 0.29662,0.37567 0.74075,-0.16182 1.19556,-1.44684 1.94216,-1.9782 2.29032,-1.63004 0.16254,0.16254 0.62337,0.29553 1.02406,0.29553 h 0.72853 l -0.44751,0.77973 c -0.44046,0.76745 -0.43516,0.79261 0.33653,1.59809 1.36435,1.42407 2.16596,0.75116 2.65321,-2.22722 0.17944,-1.09691 0.64509,-0.8836 0.65333,0.29927 0.002,0.32019 0.18143,0.68144 0.39824,0.80277 0.21681,0.12133 0.49989,0.78638 0.62908,1.47789 0.12919,0.69151 0.40206,1.46136 0.60639,1.71078 0.20432,0.24941 0.65266,0.98926 0.9963,1.64411 0.34364,0.65484 0.71642,1.29333 0.82839,1.41886 0.41513,0.46541 -1.25347,4.66655 -1.85345,4.66655 -0.1094,0 -0.72145,0.65485 -1.36011,1.45521 -0.63865,0.80037 -1.31911,1.45521 -1.51213,1.45521 -0.19303,0 -0.61101,0.14461 -0.92887,0.32135 -0.58489,0.32523 -1.41061,0.40973 -2.49673,0.25548 z m -1.78535,-1.63516 c 0.0899,-0.14553 0.21602,-0.26459 0.28019,-0.26459 0.0642,0 0.11668,0.11906 0.11668,0.26459 0,0.14552 -0.12609,0.26458 -0.2802,0.26458 -0.15411,0 -0.20661,-0.11906 -0.11667,-0.26458 z m -58.07788,-1.06176 c -0.14451,-0.27003 -0.26275,-0.68077 -0.26275,-0.91277 0,-0.232 -0.35719,-1.1294 -0.79375,-1.99422 -0.43656,-0.86483 -0.79385,-1.96276 -0.79396,-2.43985 -1.1e-4,-0.4771 -0.3573,-1.62228 -0.79375,-2.54485 -0.9351,-1.97663 -0.95342,-2.24656 -0.28208,-4.15664 0.70743,-2.01276 0.24361,-4.29397 -1.31935,-6.48894 -0.44186,-0.62054 -0.50501,-0.9868 -0.35939,-2.08451 0.20327,-1.5323 -0.10906,-2.11506 -1.03836,-1.93742 -0.44622,0.0853 -0.73759,-0.0699 -1.06275,-0.56618 -0.50759,-0.77468 -1.38343,-0.88731 -2.49944,-0.32141 -2.49731,1.26631 -6.41789,0.31903 -7.16254,-1.7306 -0.14124,-0.38877 -0.63053,-1.03984 -1.0873,-1.44683 -0.52482,-0.46762 -0.78515,-0.91339 -0.70729,-1.21111 0.0678,-0.25913 0.01,-0.54139 -0.12939,-0.62725 -0.15123,-0.0935 -0.11778,-0.31855 0.0834,-0.56092 0.20025,-0.24129 0.34728,-1.22038 0.36399,-2.42384 0.0276,-1.98563 0.23876,-2.94507 0.64828,-2.94507 0.11418,0 0.27836,-0.28194 0.36484,-0.62653 0.0865,-0.3446 0.69471,-1.06694 1.3516,-1.60522 0.69587,-0.57021 1.19435,-1.2008 1.19435,-1.51088 0,-0.29271 0.47625,-1.00371 1.05834,-1.58001 0.58208,-0.57629 1.05833,-1.15253 1.05833,-1.28053 0,-0.58097 -0.36151,-1.06975 -0.7912,-1.06975 -0.5798,0 -0.86584,-0.96318 -0.49296,-1.65992 0.1519,-0.28382 0.22149,-0.80214 0.15464,-1.15183 -0.14645,-0.76613 0.61175,-1.04844 2.07736,-0.77349 1.78199,0.3343 2.27981,-0.95062 0.87626,-2.26173 l -0.82173,-0.76761 h 0.83735 c 0.52585,0 0.77245,-0.10501 0.66288,-0.28228 -0.0997,-0.16128 -0.004,-0.24634 0.22282,-0.19844 0.54021,0.11401 2.50148,-1.13215 2.65131,-1.6846 0.0714,-0.26316 0.5119,-0.51889 1.07622,-0.62476 1.01217,-0.18988 1.09086,-0.29028 0.70521,-0.89983 -0.25232,-0.39881 0.0871,-1.33717 0.48363,-1.33717 0.11817,0 0.32234,0.23511 0.45372,0.52246 0.15047,0.32913 0.36095,0.44592 0.56878,0.31562 0.49845,-0.31251 -0.18926,-1.69328 -0.72679,-1.45924 -1.03763,0.45177 -1.68842,0.23817 -1.9435,-0.63791 -0.3136,-1.07708 0.32359,-1.91593 1.45534,-1.91593 0.41401,0 0.75274,-0.11492 0.75274,-0.25538 0,-0.14046 0.36415,-0.67012 0.80923,-1.17704 0.44508,-0.50691 0.79273,-1.01707 0.77256,-1.13368 -0.0202,-0.11662 0.59795,-0.41311 1.37359,-0.65889 1.48163,-0.46947 4.45296,-0.63904 4.45296,-0.25412 0,0.12379 0.92273,0.4372 2.05052,0.69646 2.63964,0.60684 3.16704,1.88147 0.56299,1.36066 -0.90132,-0.18026 -1.07682,0.44082 -0.24966,0.88351 0.65988,0.35316 0.88794,0.34761 0.66314,-0.0161 -0.11118,-0.17989 0.007,-0.25409 0.31207,-0.1954 0.27023,0.052 0.71025,-0.12431 0.97784,-0.3919 0.26758,-0.26758 0.6559,-0.42151 0.86293,-0.34207 0.451,0.17307 0.46964,0.0359 0.0912,-0.67119 -0.25178,-0.47045 -0.21304,-0.52192 0.33073,-0.43935 0.33875,0.0514 0.58615,0.23953 0.54977,0.41798 -0.0869,0.42611 0.32292,0.41049 1.2056,-0.046 0.63723,-0.32952 1.44848,-0.44107 3.42286,-0.47064 0.32645,-0.005 0.52779,-0.11531 0.4474,-0.24537 -0.21731,-0.35162 0.93006,-0.26514 2.12391,0.16008 0.57651,0.20534 1.11229,0.30287 1.19062,0.21675 0.0783,-0.0861 -0.009,-0.21046 -0.19303,-0.27629 -0.81371,-0.29034 -1.10956,-0.86368 -0.79823,-1.54696 0.18272,-0.40103 0.44851,-0.60634 0.67328,-0.52008 0.20426,0.0784 0.48071,0.14251 0.61433,0.14251 0.13362,0 0.24295,0.13759 0.24295,0.30576 0,0.16816 0.30816,0.70977 0.68479,1.20357 0.37664,0.4938 0.6185,1.07058 0.53748,1.28174 -0.0875,0.22812 0.0104,0.38393 0.24124,0.38393 0.21371,0 0.38857,-0.2282 0.38857,-0.50712 0,-0.27891 0.14883,-0.56717 0.33073,-0.64057 0.1819,-0.0734 0.003,-0.14285 -0.39688,-0.15434 -0.46108,-0.0132 -0.7276,-0.16626 -0.7276,-0.41776 0,-0.21828 -0.11166,-0.39688 -0.24814,-0.39688 -0.13648,0 -0.22922,-0.2512 -0.20609,-0.55823 l 0.0421,-0.55823 0.37065,0.55823 c 0.20386,0.30703 0.48978,0.55823 0.63537,0.55823 0.14559,0 0.1013,-0.19807 -0.0984,-0.44016 -0.33217,-0.40265 -0.26164,-0.42537 0.8275,-0.26647 1.13536,0.16564 1.15992,0.1558 0.52916,-0.21192 l -0.66146,-0.38561 0.76459,-0.009 c 0.42052,-0.005 0.90386,-0.19986 1.0741,-0.43268 0.20788,-0.28428 0.89004,-0.46989 2.07719,-0.56519 1.01103,-0.0812 1.89586,-0.29635 2.06715,-0.50274 0.34213,-0.41224 1.5924,-0.4835 1.9677,-0.11214 0.13825,0.13679 0.83736,0.28562 1.55359,0.33073 1.43641,0.0905 1.81876,0.49794 0.88804,0.94639 -0.36489,0.17582 -0.44615,0.29591 -0.2059,0.3043 0.21828,0.008 0.57148,-0.0966 0.78488,-0.23155 0.24451,-0.15464 0.51008,-0.14408 0.7181,0.0286 0.18155,0.15068 1.50498,0.2953 2.94095,0.32138 2.20279,0.04 2.80947,0.1499 3.88158,0.7031 0.71541,0.36914 1.31324,0.53924 1.36802,0.38923 0.0535,-0.14654 0.64798,-0.22264 1.32104,-0.16911 0.90335,0.0719 1.17232,0.0141 1.02731,-0.2205 -0.14802,-0.23951 0.21857,-0.2857 1.48762,-0.18744 3.35257,0.25958 6.9453,0.73066 7.22203,0.94695 0.42695,0.3337 4.70517,0.5992 4.50773,0.27974 -0.22511,-0.36424 1.39804,-0.12184 5.69699,0.85079 4.51536,1.02159 4.23334,0.92808 4.23334,1.40354 0,0.45711 -1.18863,0.57195 -1.45521,0.1406 -0.23999,-0.38832 -1.34245,-0.32238 -1.69409,0.10132 -0.24405,0.29406 -0.10753,0.44724 0.69521,0.78012 0.91964,0.38135 0.94268,0.41529 0.29048,0.42784 -0.41105,0.008 -0.91081,0.26914 -1.19063,0.62235 -0.36091,0.45559 -0.72967,0.60009 -1.46587,0.57442 -1.72649,-0.0602 -1.94892,0.60247 -0.52368,1.5601 0.40712,0.27355 0.75848,0.77042 0.78681,1.11265 0.0281,0.34011 0.067,0.71299 0.0865,0.82864 0.0194,0.11565 0.0212,0.54471 0.004,0.95347 l -0.0313,0.74321 -1.58868,-1.39842 c -1.85842,-1.63585 -1.95922,-1.85929 -1.47201,-3.26299 0.41887,-1.20684 -0.003,-2.34697 -0.43557,-1.17739 -0.20348,0.55005 -0.24948,0.56032 -0.69674,0.15556 -0.91483,-0.82792 -2.08898,-0.11721 -1.32572,0.80246 0.26551,0.31992 0.056,0.34887 -1.4262,0.19702 -2.11548,-0.21674 -3.63841,0.0246 -3.63841,0.57664 0,0.21892 -0.18166,0.7493 -0.40367,1.17864 -0.40724,0.78751 -0.24524,0.96662 0.7344,0.81194 0.10914,-0.0172 0.19843,0.0957 0.19843,0.25108 0,0.1602 0.22468,0.2111 0.51918,0.11764 1.7911,-0.56848 3.659,3.55228 2.57712,5.68537 -0.18451,0.3638 -0.51018,0.67749 -0.7237,0.69708 -0.21352,0.0196 -0.53705,0.0494 -0.71895,0.0661 -0.1819,0.0168 -0.33073,0.30436 -0.33073,0.63906 0,0.3347 -0.14261,0.75116 -0.31692,0.92546 -0.24617,0.24618 -0.0985,0.51698 0.66146,1.21308 1.0812,0.99035 1.25517,1.728 0.45676,1.93678 -0.59059,0.15445 -0.80371,0.13934 -0.79594,-0.0564 0.0175,-0.44162 -0.87589,-1.71702 -1.20278,-1.71702 -0.21454,0 -0.39008,-0.23812 -0.39008,-0.52916 0,-0.60587 -1.00216,-0.7441 -1.53458,-0.21167 -0.24695,0.24694 -0.32485,0.24694 -0.35058,0 -0.0182,-0.17462 -0.0628,-0.43656 -0.0992,-0.58208 -0.0364,-0.14552 -0.081,-0.34035 -0.0992,-0.43296 -0.0182,-0.0926 -0.34972,0.14828 -0.73674,0.53529 -0.90051,0.90052 -0.3066,1.52495 1.22607,1.28906 l 0.9328,-0.14357 -0.59531,0.64991 c -0.74886,0.81754 -0.75204,0.78894 0.20115,1.80933 0.43805,0.46894 0.86747,1.13556 0.95426,1.48137 0.0868,0.34581 0.26417,0.56301 0.39417,0.48266 0.71285,-0.44056 -0.3626,3.06391 -1.14792,3.74061 -0.81842,0.70523 -2.18159,1.43621 -2.67829,1.43621 -0.22498,0 -0.52603,0.20836 -0.66899,0.46302 -0.24756,0.44098 -0.26844,0.44098 -0.43833,0 -0.24321,-0.63126 -0.71229,-0.58117 -1.39858,0.14935 -0.75168,0.80013 -0.7531,0.79405 0.50678,2.16085 1.60638,1.74272 1.67848,2.89226 0.2543,4.05474 -0.58948,0.48116 -1.07178,0.72761 -1.07178,0.54766 0,-0.17995 -0.56309,-0.85155 -1.25131,-1.49245 l -1.25131,-1.16528 -0.2308,0.8822 c -0.29868,1.14164 0.17547,2.48748 1.17167,3.32573 0.41389,0.34826 0.86215,1.0125 0.99615,1.47609 0.134,0.46358 0.32881,1.05125 0.43292,1.30591 0.28135,0.6882 -0.16995,0.56221 -1.13127,-0.31582 -0.5093,-0.46517 -0.85272,-1.03567 -0.85272,-1.41657 0,-0.35076 -0.29765,-0.95892 -0.66145,-1.35146 -0.51338,-0.55394 -0.66146,-0.9963 -0.66146,-1.97588 0,-2.08722 -0.93402,-4.3164 -1.45521,-3.47309 -0.28862,0.467 -0.92604,0.28241 -0.92604,-0.26817 0,-0.6284 -0.51839,-1.62516 -1.00686,-1.936 -0.18997,-0.12088 -0.45673,-0.51263 -0.59281,-0.87054 -0.20666,-0.54356 -0.33212,-0.60542 -0.76169,-0.37552 -0.28285,0.15138 -0.75431,0.27523 -1.04769,0.27523 -0.29337,0 -0.62862,0.16704 -0.74499,0.3712 -0.11638,0.20416 -0.85803,1.06417 -1.64812,1.91112 -1.36874,1.46727 -1.43332,1.60024 -1.36867,2.81828 0.0375,0.70657 -0.0741,1.44939 -0.24952,1.66075 -0.25952,0.31271 -0.21671,0.3824 0.23489,0.3824 0.74778,0 1.21028,0.88714 0.83149,1.59492 -0.37915,0.70844 -0.78978,0.42134 -0.78978,-0.5522 0,-0.81712 -0.44504,-1.02101 -1.00542,-0.46063 -0.54117,0.54117 -2.46033,-3.48367 -3.05782,-6.41281 -0.25273,-1.23897 -0.36777,-1.4443 -0.6437,-1.14892 -0.41058,0.43954 -1.46512,-0.0859 -1.25763,-0.62658 0.0699,-0.1822 0.006,-0.33128 -0.14118,-0.33128 -0.14757,0 -0.5481,-0.27979 -0.89006,-0.62175 -0.51955,-0.51955 -0.98315,-0.64653 -2.82021,-0.77244 -1.56836,-0.1075 -2.28624,-0.27074 -2.50474,-0.56955 -0.22101,-0.30226 -0.53964,-0.3722 -1.1445,-0.25123 -0.73753,0.14751 -0.9631,0.0364 -1.87797,-0.92536 -1.09293,-1.14891 -1.51675,-1.32745 -1.74418,-0.73477 -0.1833,0.47768 0.99409,2.29653 1.3973,2.15856 0.17445,-0.0597 0.39083,0.12351 0.48085,0.40713 0.21289,0.67076 0.97518,0.65837 1.59445,-0.0259 l 0.49013,-0.54159 0.35308,0.67388 c 0.19419,0.37063 0.48873,0.67388 0.65453,0.67388 0.72468,0 1.21778,0.79669 0.90742,1.46609 -0.16485,0.35555 -0.38903,0.64738 -0.49817,0.64851 -0.10914,10e-4 -0.19843,0.16339 -0.19843,0.36057 0,0.35628 -1.50687,1.75816 -1.88983,1.75816 -0.11017,0 -0.73057,0.35787 -1.37866,0.79526 -0.64809,0.43739 -1.5495,0.86948 -2.00314,0.96021 -0.45364,0.0907 -0.88888,0.26865 -0.9672,0.39537 -0.32407,0.52435 -0.85394,0.16241 -1.30891,-0.89407 -0.26634,-0.61846 -0.53797,-1.23035 -0.60362,-1.35974 -0.0657,-0.1294 0.0151,-0.15214 0.17953,-0.0505 0.48271,0.29832 0.35953,0.0658 -0.75942,-1.434 -0.58209,-0.78017 -1.05834,-1.57108 -1.05834,-1.75758 0,-0.5228 -1.94198,-3.26268 -2.3151,-3.2663 -0.47737,-0.005 -0.43919,0.12985 0.70714,2.49008 0.57082,1.17531 1.27467,2.67271 1.5641,3.32755 0.28944,0.65485 1.01302,1.66128 1.60797,2.23651 0.59495,0.57524 1.08173,1.1765 1.08173,1.33615 0,0.54923 0.5831,0.89149 1.15807,0.67975 0.30895,-0.11378 1.08396,-0.28768 1.72226,-0.38645 l 1.16054,-0.17958 -0.1592,0.98103 c -0.21998,1.35559 -1.70674,3.66942 -3.64999,5.68046 -2.31513,2.3959 -2.66699,3.27341 -2.14781,5.35649 0.56214,2.25549 0.46988,4.1576 -0.22645,4.66855 -2.21054,1.62207 -2.40913,1.89403 -2.23433,3.05971 0.16854,1.12389 0.1377,1.18856 -1.03787,2.17625 -0.22333,0.18763 -0.40606,0.6156 -0.40606,0.95103 0,0.33543 -0.30667,0.95581 -0.68149,1.37863 -0.37483,0.42282 -0.85845,1.027 -1.07472,1.34263 -0.44647,0.65159 -2.63978,1.76931 -3.01584,1.53689 -0.13635,-0.0843 -0.66706,-0.0375 -1.17935,0.10396 -0.79493,0.21949 -0.96994,0.18523 -1.19418,-0.23377 z m 0.531,-38.58531 c 0,-0.9173 1.04773,-1.08965 2.56574,-0.42205 2.99302,1.31627 5.36996,0.40213 5.37135,-2.06578 5.3e-4,-0.81446 -0.0693,-0.85049 -0.8442,-0.4358 -0.38917,0.20828 -0.7223,0.21113 -1.16378,0.01 -0.38872,-0.17711 -0.67679,-0.18759 -0.7753,-0.0282 -0.30758,0.49767 -1.6921,-0.51119 -1.92268,-1.40099 -0.23161,-0.89382 -0.71687,-1.15907 -1.36203,-0.74452 -0.32012,0.2057 -0.32369,0.31178 -0.0227,0.67441 0.30287,0.36495 0.29028,0.49717 -0.0829,0.87036 -0.49125,0.49125 -1.99434,-0.88195 -2.01729,-1.84295 -0.006,-0.24767 -0.54124,-0.81529 -1.1896,-1.26138 -0.64837,-0.44609 -1.35859,-1.06769 -1.57827,-1.38132 -0.34494,-0.49247 -0.42185,-0.5118 -0.56387,-0.1417 -0.22839,0.59517 0.58737,1.58612 1.78543,2.16887 0.98391,0.47858 1.44023,1.08342 0.56358,0.74702 -0.33451,-0.12836 -0.40156,-0.0624 -0.27416,0.26958 0.28102,0.7323 -0.96517,1.8786 -1.64611,1.51417 -0.70602,-0.37785 -0.69885,-0.59441 0.0162,-0.48937 0.9378,0.13774 1.29759,-0.78936 0.51536,-1.328 -0.35248,-0.24272 -1.09529,-0.89141 -1.65069,-1.44153 -0.98422,-0.97487 -1.02661,-0.98922 -1.67219,-0.56622 -0.3643,0.2387 -0.83779,0.36668 -1.05219,0.28441 -0.4256,-0.16332 -2.88376,2.10571 -2.66489,2.45985 0.18573,0.30051 -0.63436,0.95588 -1.79706,1.43612 -0.55618,0.22972 -0.93611,0.53924 -0.84428,0.68781 0.24429,0.39528 1.52055,0.3296 2.14902,-0.11059 0.29895,-0.2094 1.58627,-0.52659 2.8607,-0.70487 2.55954,-0.35806 2.92169,-0.21376 2.69887,1.07542 -0.11958,0.6919 0.43498,1.30982 1.18884,1.32467 0.23504,0.005 0.71181,0.23217 1.05949,0.50566 0.59244,0.46602 1.24561,0.72321 2.0189,0.79498 0.1819,0.0169 0.33073,-0.18924 0.33073,-0.45805 z m 16.40417,-3.84449 c 0,-0.34599 -0.17992,-0.77838 -0.39981,-0.96088 -0.35494,-0.29457 -0.35044,-0.36791 0.0401,-0.65347 0.47366,-0.34634 0.0686,-0.84536 -0.43402,-0.53472 -0.14552,0.0899 -0.26459,-0.008 -0.26459,-0.21854 0,-0.21013 -0.31646,-0.58941 -0.70325,-0.84284 l -0.70325,-0.46079 0.60901,-0.45938 c 0.64866,-0.48929 0.53501,-1.06203 -0.21031,-1.05984 -0.62946,0.002 -2.09966,1.259 -1.77032,1.51378 0.14552,0.11258 0.30005,0.37064 0.34341,0.57347 0.0433,0.20282 0.38091,0.60639 0.75012,0.89681 0.55858,0.43938 0.64386,0.67432 0.50787,1.3992 -0.18573,0.99003 0.26222,1.41444 1.50745,1.42821 0.59199,0.007 0.72761,-0.1092 0.72761,-0.62101 z m -8.64872,-2.0708 c 2.4979,0.90326 3.01926,-0.47223 0.64446,-1.70029 -0.69799,-0.36094 -0.71148,-0.40466 -0.31263,-1.01337 0.41095,-0.62719 0.40656,-0.6334 -0.31226,-0.44116 -0.76658,0.20501 -1.19122,0.81565 -0.58717,0.84436 0.19402,0.009 0.0551,0.13565 -0.30868,0.28094 -0.54837,0.21901 -0.72352,0.17091 -1.02446,-0.28135 -0.5161,-0.7756 -0.96707,-0.67817 -1.5998,0.3456 -1.029,1.66497 -0.37708,2.44649 1.6005,1.91865 0.73856,-0.19714 1.26141,-0.18431 1.90004,0.0466 z m -9.87399,-7.48563 c 0.48449,-0.25054 0.82557,-0.29885 0.92896,-0.13158 0.29965,0.48485 1.18958,-0.23924 1.18958,-0.96789 0,-0.55264 0.10096,-0.65661 0.5289,-0.5447 0.57665,0.1508 0.97014,-0.2011 0.52943,-0.47347 -0.49356,-0.30504 0.0138,-0.66146 0.94166,-0.66146 0.50074,0 0.91043,-0.1125 0.91043,-0.25001 0,-0.1375 -0.68461,-0.2268 -1.52136,-0.19843 -1.95264,0.0662 -2.40749,-1.09992 -0.80573,-2.06564 0.79696,-0.48049 0.82194,-0.5329 0.29073,-0.60984 -1.24729,-0.18065 -3.20489,2.2813 -2.26312,2.84619 0.44097,0.26451 0.44097,0.29096 0,0.55546 -0.25466,0.15276 -0.46302,0.48348 -0.46302,0.73495 0,0.58031 -0.99615,1.44905 -1.45823,1.27173 -0.19254,-0.0739 -0.4208,0.05 -0.50725,0.2753 -0.11056,0.28812 -0.0386,0.36411 0.24268,0.25618 0.21994,-0.0844 0.39988,-0.0381 0.39988,0.10283 0,0.34559 0.15872,0.32462 1.05646,-0.13962 z m 14.70167,46.8743 c -0.38662,-0.2827 -0.44503,-0.55438 -0.29849,-1.38837 0.1002,-0.5703 0.24582,-1.6647 0.32358,-2.43201 0.12116,-1.19541 0.24849,-1.45049 0.88946,-1.78195 0.41143,-0.21276 1.00367,-0.74582 1.3161,-1.18458 1.31792,-1.85085 1.3875,-0.49413 0.18169,3.54276 -0.93795,3.14012 -1.50737,3.90589 -2.41234,3.24415 z m 41.6564,-9.30444 c 0.30516,-0.36769 -2.28621,-0.63748 -3.9335,-0.40953 -1.63839,0.22672 -5.66052,-1.08249 -5.08713,-1.65588 0.17955,-0.17955 0.39531,-0.16043 0.65899,0.0584 0.21562,0.17895 0.72668,0.29882 1.1357,0.26638 1.39967,-0.111 2.19954,0.0175 2.13271,0.3427 -0.0884,0.43002 2.56479,0.73564 4.96094,0.57146 l 1.85208,-0.1269 -0.91129,0.67512 c -1.03612,0.76758 -1.28598,0.85357 -0.8085,0.27824 z m 11.77554,-0.43098 c -0.87993,-0.77259 -0.97467,-0.79908 -1.4191,-0.39688 -0.82902,0.75026 -2.9179,0.21085 -2.73481,-0.70621 0.13659,-0.68413 -0.38729,-1.19567 -1.59514,-1.55755 -0.57997,-0.17377 -1.12355,-0.50174 -1.20796,-0.72882 -0.0844,-0.22709 -0.3818,-0.57697 -0.66086,-0.7775 -0.4063,-0.29196 -0.43613,-0.40976 -0.14972,-0.59126 0.71371,-0.45227 1.3084,-0.24292 1.58795,0.55899 0.31943,0.91632 0.74585,1.0046 1.39384,0.28858 0.3488,-0.38541 0.62686,-0.45649 1.17302,-0.29986 1.07806,0.30919 2.89336,1.28404 3.13399,1.68302 0.11695,0.1939 0.4292,0.43227 0.69389,0.52972 0.3362,0.12378 0.43094,0.33575 0.3143,0.70325 -0.11512,0.36271 0.0435,0.73657 0.51092,1.20396 1.24713,1.24713 0.36445,1.32397 -1.04032,0.0906 z m -22.66274,-2.54558 c -0.3671,-0.40019 -0.88127,-1.30833 -1.1426,-2.0181 -0.26829,-0.7287 -0.98449,-1.80716 -1.64517,-2.47733 -0.64351,-0.65276 -1.11566,-1.2412 -1.04921,-1.30765 0.20346,-0.20346 2.30505,0.9736 2.4602,1.37791 0.0801,0.20876 0.55056,0.62981 1.04544,0.93567 0.49489,0.30585 0.90375,0.69521 0.9086,0.86524 0.0114,0.40067 0.92813,1.49978 1.2509,1.49978 0.14759,0 0.1309,0.3768 -0.041,0.92604 -0.35155,1.1232 -0.88455,1.18238 -1.78715,0.19844 z m 8.6935,-0.17379 c -0.0804,-0.49576 0.006,-1.41667 0.19182,-2.04645 l 0.33809,-1.14505 1.37607,-0.0285 c 1.21082,-0.0251 1.32934,0.0182 0.98703,0.3605 -0.31068,0.31068 -0.55588,0.33086 -1.21761,0.10018 -0.66534,-0.23194 -0.8569,-0.21504 -0.97233,0.0858 -0.22173,0.57781 0.10653,0.89433 0.76329,0.736 0.45865,-0.11056 0.52643,-0.0696 0.2957,0.17867 -0.21611,0.23254 -0.22218,0.57359 -0.0218,1.2264 0.15264,0.49735 0.20597,0.97583 0.11852,1.06328 -0.26932,0.26933 -0.72338,-0.16235 -0.72338,-0.68772 0,-0.27387 -0.11906,-0.57152 -0.26458,-0.66146 -0.15746,-0.0973 -0.26459,0.21774 -0.26459,0.77813 0,1.19881 -0.41374,1.22629 -0.6062,0.0403 z m -3.76497,-0.34382 c -1.18516,-0.15153 -2.05898,-2.98812 -0.92049,-2.98812 0.29398,0 0.52916,-0.17639 0.52916,-0.39687 0,-0.21829 0.10048,-0.39688 0.22329,-0.39688 0.1228,0 0.83055,-0.58224 1.57277,-1.29388 1.63372,-1.56639 2.56114,-1.27312 1.8852,0.59615 -0.26506,0.73301 -0.26739,1.0094 -0.0111,1.31822 0.20393,0.24572 0.22754,0.45053 0.0636,0.55184 -0.37899,0.23423 -1.08794,1.73816 -1.08794,2.3079 0,0.5023 -0.33474,0.54709 -2.2545,0.30164 z m 6.54799,-5.67964 c -0.1786,-0.1786 -0.32473,-0.47951 -0.32473,-0.66869 0,-0.40695 -0.69025,-0.46375 -0.88415,-0.0728 -0.074,0.14916 -0.10487,0.1194 -0.0687,-0.0662 0.0362,-0.18554 0.38964,-0.49515 0.7854,-0.68802 0.55454,-0.27025 0.67998,-0.47541 0.54696,-0.89454 -0.38868,-1.2246 -2.23164,-2.67262 -2.23164,-1.75339 0,0.39712 -0.28745,0.11565 -0.35802,-0.35059 -0.0296,-0.19523 -0.14224,-0.49657 -0.25042,-0.66964 -0.28754,-0.46002 0.0941,-2.50283 0.44546,-2.38429 0.1624,0.0548 0.30451,0.6181 0.3158,1.25179 0.018,1.0125 0.10837,1.18146 0.7452,1.39373 0.42918,0.14306 0.67102,0.38138 0.5931,0.58445 -0.0724,0.18866 0.0982,0.40298 0.37928,0.47648 0.29359,0.0768 0.51085,0.36254 0.51085,0.67192 0,0.29607 0.11907,0.6119 0.26459,0.70184 0.29831,0.18437 0.32378,1.60817 0.0416,2.32234 -0.14684,0.37156 -0.25399,0.4021 -0.51057,0.14552 z m -1.31942,-2.59656 c -0.39239,-0.62831 -0.40989,-0.79734 -0.0826,-0.79734 0.31821,0 1.07724,0.75904 1.07724,1.07724 0,0.44277 -0.65922,0.25728 -0.99469,-0.2799 z m -101.13448,-4.5015 c -0.44097,-0.14123 -0.50712,-0.22063 -0.19844,-0.23821 0.25466,-0.0145 0.46302,-0.20497 0.46302,-0.42325 0,-0.41028 0.91349,-0.53738 1.69815,-0.23628 0.58449,0.22429 0.52312,0.63315 -0.095,0.63315 -0.28245,0 -0.58714,0.11907 -0.67708,0.26459 -0.18385,0.29748 -0.26172,0.29748 -1.19062,0 z m 93.45552,-0.57005 c 0.0652,-0.19579 0.33074,-0.39713 0.5901,-0.44741 0.30163,-0.0585 0.42885,0.0369 0.35303,0.26459 -0.0652,0.19579 -0.33075,0.39713 -0.59011,0.44741 -0.30163,0.0585 -0.42885,-0.0369 -0.35302,-0.26459 z m -95.83677,-0.89866 c 0,-0.60457 -1.83707,-1.31379 -2.43531,-0.94018 -0.66868,0.41759 -0.86144,0.36085 -0.45162,-0.13295 0.50549,-0.60908 2.61312,-0.35875 3.80313,0.45171 1.17461,0.79997 1.17682,1.03179 0.01,1.03179 -0.6603,0 -0.92604,-0.11776 -0.92604,-0.41037 z m 101.52364,-1.0771 c -0.26796,-0.26795 -0.2333,-1.36385 0.0486,-1.5381 0.13027,-0.0805 0.30507,0.0314 0.38845,0.24867 0.18569,0.48389 -0.17591,1.55061 -0.43709,1.28943 z m -62.9475,-16.57259 c 0.23031,-0.2775 0.24722,-0.44014 0.0525,-0.50504 -0.16415,-0.0547 -0.0377,-0.36351 0.29516,-0.7208 l 0.58235,-0.62507 -0.63693,-0.48044 c -0.68046,-0.51327 -0.79661,-0.91396 -0.4644,-1.6021 0.27013,-0.55953 1.3873,-0.88578 1.17958,-0.34447 -0.0797,0.20766 -0.0168,0.37757 0.1397,0.37757 0.15653,0 0.21897,0.17099 0.13877,0.37998 -0.0802,0.209 0.0857,0.67426 0.36857,1.03393 0.28291,0.35966 0.51438,0.78398 0.51438,0.94292 0,0.15895 0.1786,0.289 0.39688,0.289 0.46692,0 0.48836,0.12843 0.13245,0.79345 -0.16548,0.3092 -0.53722,0.48633 -0.99346,0.47336 -0.40097,-0.0114 -1.02519,0.0733 -1.38715,0.18814 -0.57393,0.18216 -0.61466,0.15652 -0.31841,-0.20043 z m -2.44726,-0.70391 c -0.0972,-0.15732 -0.0427,-0.28603 0.12125,-0.28603 0.17762,0 0.23018,-0.21378 0.13008,-0.52916 -0.11919,-0.37553 -0.0476,-0.52917 0.24675,-0.52917 0.22809,0 0.41471,-0.11906 0.41471,-0.26458 0,-0.14552 0.29992,-0.26459 0.6665,-0.26459 1.16533,0 0.57318,1.67193 -0.70379,1.98709 -0.40241,0.0993 -0.7737,0.0512 -0.8755,-0.11356 z m -14.56534,-4.83552 c -1.2553,-0.71184 -1.38043,-3.5153 -0.19844,-4.44587 0.41278,-0.32498 0.52726,-0.50984 0.26459,-0.42725 -0.25466,0.0801 -0.46302,0.0303 -0.46302,-0.11069 0,-0.14095 0.20836,-0.26007 0.46302,-0.26469 0.42793,-0.008 0.42981,-0.0337 0.0248,-0.34178 -0.30856,-0.23471 -0.36679,-0.46101 -0.19679,-0.76478 0.36124,-0.6455 -0.35565,-1.20488 -1.81554,-1.41665 -2.33847,-0.33922 -2.81502,-1.15818 -0.67993,-1.1685 1.01494,-0.005 1.71895,-0.2485 1.54264,-0.53378 -0.35494,-0.57431 10.86781,-1.50359 13.07017,-1.08224 0.96077,0.18381 2.2231,0.41456 2.80518,0.51279 l 1.05833,0.1786 -0.79375,0.3032 c -0.43656,0.16676 -1.01032,0.3733 -1.27501,0.45899 -0.34041,0.11019 -0.43199,0.31105 -0.3129,0.68626 0.0967,0.30474 0.0482,0.53047 -0.11405,0.53047 -0.15533,0 -0.28241,0.19122 -0.28241,0.42494 0,0.23372 -0.29766,0.65908 -0.66146,0.94524 -0.3638,0.28617 -0.66162,0.72002 -0.66183,0.96412 -2.6e-4,0.31711 -0.47237,0.57977 -1.65364,0.91999 -0.90931,0.2619 -2.24859,0.7551 -2.9762,1.096 -0.7276,0.3409 -1.79917,0.75514 -2.38125,0.92052 -0.76042,0.21606 -1.35625,0.66989 -2.11666,1.61223 -1.08586,1.34563 -1.65858,1.56272 -2.64584,1.00288 z m 10.78177,-2.05016 c -0.83363,-0.69544 -0.81104,-0.70895 1.2496,-0.74716 2.10894,-0.0391 2.58769,0.30084 1.22534,0.87007 -1.21896,0.50931 -1.74863,0.483 -2.47494,-0.12291 z m -22.02656,-0.0232 c 0,-0.34103 0.75382,-0.64899 0.99594,-0.40687 0.0987,0.0987 0.004,0.29013 -0.20985,0.42551 -0.51217,0.32391 -0.78609,0.31741 -0.78609,-0.0186 z m -12.37899,-2.24136 c -0.24721,-0.28656 -0.26532,-0.53501 -0.0661,-0.90718 0.36885,-0.6892 0.3459,-0.93541 -0.0564,-0.60553 -0.32253,0.26444 -1.05369,0.41463 -1.71979,0.35326 -0.45031,-0.0415 -0.4221,-0.55963 0.0305,-0.55963 0.19866,0 0.66392,-0.23813 1.03392,-0.52917 0.77547,-0.60999 2.20869,-0.69485 2.81739,-0.16682 0.79014,0.68543 1.95362,0.91183 2.58421,0.50285 0.56288,-0.36506 0.57858,-0.3455 0.56412,0.70256 -0.008,0.60308 -0.14685,1.08816 -0.31442,1.10097 -0.16475,0.0126 -1.01391,0.0503 -1.88704,0.0837 -0.87312,0.0335 -1.82562,0.14155 -2.11667,0.24022 -0.33038,0.11201 -0.65705,0.0311 -0.86961,-0.21524 z m 6.80661,-1.60623 c -0.24938,-0.30048 -0.22573,-0.37744 0.11603,-0.37744 0.23609,0 0.42927,-0.11906 0.42927,-0.26458 0,-0.14552 0.35345,-0.26458 0.78544,-0.26458 0.99614,0 0.83253,0.63912 -0.26122,1.02041 -0.57945,0.20199 -0.82951,0.17539 -1.06952,-0.11381 z m -3.74281,-1.28335 c -0.39393,-0.2056 -0.92971,-0.41815 -1.19063,-0.47232 -0.2654,-0.0551 0.0976,-0.24576 0.82407,-0.43277 0.73701,-0.18974 1.36624,-0.23251 1.45521,-0.0989 0.37329,0.56049 1.18476,0.79378 1.79457,0.51593 0.33736,-0.15371 0.69423,-0.19861 0.79305,-0.0998 0.64464,0.64464 -2.57966,1.16023 -3.67627,0.58787 z m 6.08871,-0.0674 c -0.26046,-0.0687 -0.3872,-0.27755 -0.30242,-0.49847 0.20011,-0.52149 0.79829,-0.47786 1.13431,0.0827 0.26232,0.43764 0.29856,0.43588 0.66108,-0.0321 0.28392,-0.36649 0.5677,-0.44888 1.09249,-0.31717 1.03665,0.26019 2.59617,-0.098 1.7655,-0.40552 -2.35045,-0.87008 0.40767,-1.60083 7.47448,-1.98032 3.54294,-0.19026 3.79452,-0.0511 0.97862,0.54121 -1.04609,0.22005 -2.6234,0.70374 -3.50514,1.07486 -0.91007,0.38304 -2.29258,0.71811 -3.19781,0.77504 -1.84996,0.11633 -2.42451,0.41012 -0.80206,0.41012 0.60634,0 1.10243,0.11906 1.10243,0.26458 0,0.40283 -3.63268,0.33929 -3.78134,-0.0661 -0.097,-0.26458 -0.19138,-0.26458 -0.47184,0 -0.3428,0.3234 -1.25211,0.38739 -2.1483,0.15117 z m -2.99123,-1.40794 c 0.0899,-0.14552 0.34212,-0.26458 0.5604,-0.26458 0.21828,0 0.32329,0.11906 0.23335,0.26458 -0.0899,0.14552 -0.34211,0.26459 -0.56039,0.26459 -0.21829,0 -0.3233,-0.11907 -0.23336,-0.26459 z m 3.50573,0.0822 c -0.25466,-0.0665 -0.46302,-0.24522 -0.46302,-0.39704 0,-0.15715 0.25641,-0.20732 0.59531,-0.1165 0.32742,0.0877 0.68461,0.16116 0.79375,0.16315 0.10914,0.002 0.19844,0.12267 0.19844,0.26819 0,0.27161 -0.31232,0.29444 -1.12448,0.0822 z m 1.83723,0.0132 c -0.21139,-0.21138 0.0276,-0.62455 0.3612,-0.62455 0.13693,0 0.24897,0.17859 0.24897,0.39687 0,0.40916 -0.3122,0.52565 -0.61017,0.22768 z"
       id="path1579" />
    <g
       id="g137697"
       transform="translate(4.8898314,2.8589648)">
      <g
         id="g54654"
         transform="translate(-110.77578,152.31715)">
        <path
           style="fill:#070205;fill-opacity:1;stroke:#000000;stroke-width:0.264583px;stroke-linecap:butt;stroke-linejoin:miter;stroke-opacity:1"
           d="m 501.44739,260.29169 -1.34802,-7.27414 3.2045,-2.50261 3.46609,-6.29769 3.43167,-3.16714 2.8656,-9.06548 -7.83228,-3.61635 -1.94714,-3.49837 -6.55662,-3.22255 -4.5181,-0.18476 -3.10285,0.94631 -6.26001,-5.42612 -0.39788,-5.25034 5.6996,-0.8799 7.77189,-6.12452 4.4803,-3.28991 5.26486,-3.17004 -0.87378,-5.01876 -3.91345,-2.14949 -5.57144,6.47291 -3.36873,-3.27991 5.96688,-4.42272 -2.5991,-2.61787 -15.61984,0.0251 -10.32711,1.32258 -6.18389,4.58039 1.49666,1.28747 7.12079,-1.08328 2.41969,5.54253 -2.93253,5.46605 0.23135,3.28697 3.77854,4.20608 1.20081,4.52234 5.295,3.0824 2.2897,0.9739 4.01283,3.52748 1.99314,1.82949 -2.13374,3.86834 0.85204,3.23482 3.44181,5.14945 2.28589,1.76274 0.77515,11.88513 1.16472,4.73562 2.01123,3.60225 z"
           id="path54648" />
        <path
           style="fill:#070205;fill-opacity:1;stroke:#000000;stroke-width:0.264583px;stroke-linecap:butt;stroke-linejoin:miter;stroke-opacity:1"
           d="m 540.0383,248.51927 -3.36251,-10.28179 2.06761,-3.88657 -3.55671,-5.43272 0.17449,-3.09226 -3.78658,-2.04751 -3.34254,2.29749 -6.18649,-3.58484 0.10793,-8.50845 5.85994,-6.05329 7.72035,-1.60005 1.15501,2.84084 3.68052,0.76385 7.16277,1.81612 5.0351,9.04635 4.27863,0.72138 -3.84498,7.74465 -1.93212,5.03105 -2.51542,5.03841 -0.0471,3.62656 -2.77556,4.29612 z"
           id="path54650" />
        <path
           style="fill:#070205;fill-opacity:1;stroke:#000000;stroke-width:0.264583px;stroke-linecap:butt;stroke-linejoin:miter;stroke-opacity:1"
           d="m 512.28721,183.25944 -4.62372,1.15612 4.11787,0.42525 -0.0832,4.6402 0.42836,3.69218 v 0 l 4.43174,-2.05726 5.354,-2.4553 3.55587,-3.77413 2.53339,-1.57815 -9.6357,-1.61365 z"
           id="path54652" />
      </g>
    </g>
    <g
       id="g137691"
       transform="translate(15.931919,2.8589681)">
      <path
         sodipodi:type="star"
         style="fill:#c4317f;fill-opacity:1;stroke-width:2.02672"
         id="path56267"
         inkscape:flatsided="true"
         sodipodi:sides="10"
         sodipodi:cx="811.62463"
         sodipodi:cy="1228.1525"
         sodipodi:r1="135.53178"
         sodipodi:r2="128.89838"
         sodipodi:arg1="1.0471976"
         sodipodi:arg2="1.3613568"
         inkscape:rounded="0"
         inkscape:randomized="0"
         d="m 879.39052,1345.5264 -81.93282,17.4154 -76.52154,-34.0696 -41.88162,-72.5411 8.75565,-83.3044 56.04856,-62.2482 81.93282,-17.4154 76.52153,34.0696 41.88162,72.5411 -8.75564,83.3044 z"
         transform="matrix(0.26109453,0,0,0.26109453,33.858117,52.651549)" />
      <path
         id="path62879"
         style="fill:#070205;fill-opacity:1;stroke:#000000;stroke-width:0.264583px;stroke-linecap:butt;stroke-linejoin:miter;stroke-opacity:1"
         d="m 251.6802,339.1729 -2.7771,0.7147 -4.62349,1.15599 4.11758,0.42531 -0.0832,4.64053 0.4284,3.69176 4.43177,-2.05722 5.3542,-2.45514 2.03553,-2.16062 z m -19.75487,4.70773 -4.88859,0.008 -13.59504,15.09934 -1.15186,10.96005 0.8201,3.08869 5.29477,3.08251 2.28978,0.97409 4.01268,3.52745 1.99315,1.82933 -2.13371,3.8685 0.85214,3.23495 3.44165,5.14956 2.28617,1.76268 0.48679,7.46104 7.90081,3.51761 0.38551,-0.30076 3.46593,-6.29779 3.43183,-3.16725 2.86546,-9.0656 -7.83208,-3.61633 -1.94717,-3.49848 -6.5567,-3.22254 -4.51807,-0.1845 -3.10266,0.9462 -6.26008,-5.42602 -0.39791,-5.25034 5.6994,-0.88003 7.77213,-6.1247 4.48035,-3.28973 5.26479,-3.16981 -0.87385,-5.01883 -3.91345,-2.14974 -5.57124,6.47301 -3.36878,-3.27991 5.96656,-4.42249 z m 40.42441,19.07689 -7.72046,1.59988 -5.86011,6.05337 -0.10749,8.50853 6.18619,3.58481 3.34243,-2.29753 3.78685,2.04742 -0.17467,3.09232 3.49385,5.33662 2.79983,-3.10939 2.14818,-20.43543 -3.05924,-0.77566 -3.6804,-0.7643 z" />
    </g>
    <g
       id="g137687">
      <path
         sodipodi:type="star"
         style="fill:#c4317f;fill-opacity:1;stroke-width:2.02672"
         id="path62940"
         inkscape:flatsided="true"
         sodipodi:sides="10"
         sodipodi:cx="811.62463"
         sodipodi:cy="1228.1525"
         sodipodi:r1="135.53178"
         sodipodi:r2="128.89838"
         sodipodi:arg1="1.0471976"
         sodipodi:arg2="1.3613568"
         inkscape:rounded="0"
         inkscape:randomized="0"
         d="m 879.39052,1345.5264 -81.93282,17.4154 -76.52154,-34.0696 -41.88162,-72.5411 8.75565,-83.3044 56.04856,-62.2482 81.93282,-17.4154 76.52153,34.0696 41.88162,72.5411 -8.75564,83.3044 z"
         transform="matrix(0.26109453,0,0,0.26109453,-109.9124,52.716714)" />
      <path
         id="path62942"
         style="fill:#070205;fill-opacity:1;stroke:#000000;stroke-width:0.264583px;stroke-linecap:butt;stroke-linejoin:miter;stroke-opacity:1"
         d="m 107.90968,339.1729 -2.77709,0.7147 -4.62349,1.15599 4.11757,0.42531 -0.0832,4.64053 0.42839,3.69176 4.43177,-2.05722 5.3542,-2.45514 2.03553,-2.16062 z m -19.754869,4.70773 -4.88859,0.008 -13.595035,15.09934 -1.151868,10.96005 0.820105,3.08869 5.294767,3.08251 2.289784,0.97409 4.012673,3.52745 1.993159,1.82933 -2.133719,3.86849 0.852146,3.23496 3.44165,5.14956 2.286164,1.76268 0.486794,7.46104 7.900807,3.51761 0.385509,-0.30076 3.465936,-6.29779 3.431837,-3.16725 2.86545,-9.0656 -7.832077,-3.61633 -1.947167,-3.49848 -6.556705,-3.22254 -4.51807,-0.1845 -3.102655,0.9462 -6.260081,-5.42602 -0.39791,-5.25034 5.699395,-0.88003 7.772135,-6.1247 4.480346,-3.28973 5.264795,-3.16981 -0.87385,-5.01883 -3.913454,-2.14974 -5.571236,6.473 -3.368786,-3.2799 5.96656,-4.42249 z m 40.424409,19.07689 -7.72046,1.59988 -5.86011,6.05337 -0.10749,8.50853 6.18619,3.58481 3.34243,-2.29754 3.78685,2.04743 -0.17467,3.09232 3.49385,5.33662 2.79983,-3.10939 2.14819,-20.43543 -3.05925,-0.77566 -3.6804,-0.7643 z" />
      <rect
         style="fill:#000000;fill-opacity:1;stroke-width:0.529167"
         id="rect62996"
         width="30.697567"
         height="14.47791"
         x="47.503632"
         y="326.78046" />
      <path
         style="fill:#000000;fill-opacity:1;stroke:none;stroke-width:0.264583px;stroke-linecap:butt;stroke-linejoin:miter;stroke-opacity:1"
         d="m 78.201202,341.25836 v 2.29432 l -7.9375,-2.65967 7.245066,-1.09621 z"
         id="path63490" />
      <rect
         style="fill:#000000;fill-opacity:1;stroke-width:0.529167"
         id="rect63826"
         width="30.697567"
         height="14.47791"
         x="57.960972"
         y="-425.56836"
         transform="scale(1,-1)" />
      <path
         style="fill:#000000;fill-opacity:1;stroke:none;stroke-width:0.264583px;stroke-linecap:butt;stroke-linejoin:miter;stroke-opacity:1"
         d="m 88.674719,411.03929 v -2.26273 l -7.9375,2.62305 7.245065,1.08112 z"
         id="path63828" />
      <rect
         style="fill:#000000;fill-opacity:1;stroke-width:0.529167"
         id="rect63830"
         width="30.697567"
         height="14.47791"
         x="-166.32649"
         y="344.75122"
         transform="scale(-1,1)" />
      <path
         style="fill:#000000;fill-opacity:1;stroke:none;stroke-width:0.264583px;stroke-linecap:butt;stroke-linejoin:miter;stroke-opacity:1"
         d="m 135.61489,359.11501 v 2.26274 l 8.07654,-2.62306 -7.37198,-1.08111 z"
         id="path63832" />
      <text
         xml:space="preserve"
         style="font-style:normal;font-weight:normal;font-size:10.5833px;line-height:1.25;font-family:sans-serif;fill:#ffffff;fill-opacity:1;stroke:none;stroke-width:0.264583"
         x="62.852417"
         y="334.58527"
         id="text65760"><tspan
           sodipodi:role="line"
           style="font-size:10.5833px;text-align:center;text-anchor:middle;fill:#ffffff;fill-opacity:1;stroke-width:0.264583"
           x="62.852417"
           y="334.58527"
           id="tspan97551">...</tspan></text>
      <text
         xml:space="preserve"
         style="font-style:normal;font-weight:normal;font-size:10.5833px;line-height:1.25;font-family:sans-serif;fill:#ffffff;fill-opacity:1;stroke:none;stroke-width:0.264583"
         x="151.02344"
         y="353.12189"
         id="text115329"><tspan
           sodipodi:role="line"
           style="font-size:10.5833px;text-align:center;text-anchor:middle;fill:#ffffff;fill-opacity:1;stroke-width:0.264583"
           x="151.02344"
           y="353.12189"
           id="tspan115327">...</tspan></text>
      <text
         xml:space="preserve"
         style="font-style:normal;font-weight:normal;font-size:10.5833px;line-height:1.25;font-family:sans-serif;fill:#ffffff;fill-opacity:1;stroke:none;stroke-width:0.264583"
         x="73.309753"
         y="418.89526"
         id="text115333"><tspan
           sodipodi:role="line"
           style="font-size:10.5833px;text-align:center;text-anchor:middle;fill:#ffffff;fill-opacity:1;stroke-width:0.264583"
           x="73.309753"
           y="418.89526"
           id="tspan115331">...</tspan></text>
    </g>
  </g>
</svg>
